<?xml version="1.0" encoding="utf-8"?>
<!-- Generator: Adobe Illustrator 13.0.0, SVG Export Plug-In . SVG Version: 6.00 Build 14948)  -->
<!DOCTYPE svg PUBLIC "-//W3C//DTD SVG 1.1//EN" "http://www.w3.org/Graphics/SVG/1.1/DTD/svg11.dtd">
<svg version="1.1" id="Layer_1" xmlns="http://www.w3.org/2000/svg" xmlns:xlink="http://www.w3.org/1999/xlink" x="0px" y="0px"
	 width="153.076px" height="100px" viewBox="0 0 153.076 100" enable-background="new 0 0 153.076 100" xml:space="preserve">
<g id="Layer_2" display="none">
	<rect x="-342.681" y="-236.582" display="inline" fill="#292929" width="841.891" height="595.275"/>
</g>
<g id="Layer_1_1_">
	<g>
		<g>
			<path fill="#FF0000" d="M90.5,9.053v27.149h9.05V9.053H90.5z M99.548,81.9h-9.049v9.05H9.05V9.05h90.499V0H0.001v0.113H0V99.66
				h0.001V100h99.547v-9.05h-0.001L99.548,81.9L99.548,81.9z"/>
		</g>
	</g>
	<g enable-background="new    ">
		<path fill="#292929" d="M56.08,53.98c-0.724,0.362-2.172,0.725-4.028,0.725c-4.299,0-7.536-2.716-7.536-7.717
			c0-4.774,3.236-8.011,7.965-8.011c1.901,0,3.1,0.407,3.621,0.679l-0.475,1.607c-0.747-0.362-1.81-0.634-3.078-0.634
			c-3.575,0-5.951,2.285-5.951,6.291c0,3.733,2.15,6.132,5.861,6.132c1.199,0,2.421-0.249,3.213-0.634L56.08,53.98z"/>
		<path fill="#292929" d="M68.139,48.912c0,4.05-2.806,5.815-5.454,5.815c-2.964,0-5.25-2.173-5.25-5.635
			c0-3.666,2.399-5.815,5.431-5.815C66.011,43.277,68.139,45.563,68.139,48.912z M59.449,49.025c0,2.398,1.38,4.209,3.326,4.209
			c1.901,0,3.327-1.788,3.327-4.255c0-1.855-0.928-4.209-3.281-4.209S59.449,46.943,59.449,49.025z"/>
		<path fill="#292929" d="M70.648,46.49c0-1.131-0.022-2.059-0.09-2.964H72.3l0.091,1.765h0.068c0.611-1.041,1.629-2.014,3.44-2.014
			c1.493,0,2.625,0.905,3.1,2.195h0.045c0.34-0.611,0.77-1.087,1.223-1.426c0.656-0.498,1.38-0.77,2.421-0.77
			c1.448,0,3.599,0.95,3.599,4.752v6.449h-1.947v-6.2c0-2.104-0.77-3.372-2.375-3.372c-1.132,0-2.015,0.838-2.354,1.811
			c-0.091,0.271-0.158,0.634-0.158,0.996v6.766h-1.947v-6.563c0-1.742-0.769-3.01-2.285-3.01c-1.244,0-2.149,0.996-2.466,1.991
			c-0.113,0.295-0.158,0.634-0.158,0.974v6.607h-1.946V46.49z"/>
		<path fill="#292929" d="M89.517,47.102c0-1.403-0.046-2.534-0.091-3.575h1.788l0.091,1.878h0.045
			c0.814-1.335,2.104-2.127,3.893-2.127c2.646,0,4.639,2.24,4.639,5.566c0,3.938-2.398,5.884-4.979,5.884
			c-1.448,0-2.715-0.634-3.371-1.72h-0.046v5.951h-1.969V47.102z M91.486,50.021c0,0.294,0.046,0.565,0.091,0.814
			c0.361,1.381,1.561,2.331,2.986,2.331c2.105,0,3.326-1.72,3.326-4.231c0-2.195-1.153-4.073-3.258-4.073
			c-1.357,0-2.625,0.973-3.01,2.467c-0.068,0.249-0.136,0.543-0.136,0.814V50.021z"/>
		<path fill="#292929" d="M111.555,51.491c0,1.132,0.022,2.127,0.09,2.987h-1.765l-0.113-1.788h-0.045
			c-0.521,0.883-1.675,2.037-3.621,2.037c-1.72,0-3.778-0.95-3.778-4.798v-6.403h1.99v6.064c0,2.082,0.634,3.484,2.444,3.484
			c1.335,0,2.263-0.928,2.625-1.81c0.113-0.295,0.182-0.656,0.182-1.019v-6.721h1.991V51.491z"/>
		<path fill="#292929" d="M114.857,46.49c0-1.131-0.023-2.059-0.091-2.964h1.765l0.113,1.811h0.045
			c0.544-1.041,1.811-2.06,3.621-2.06c1.516,0,3.869,0.905,3.869,4.661v6.54h-1.991v-6.313c0-1.765-0.656-3.236-2.534-3.236
			c-1.313,0-2.331,0.929-2.67,2.037c-0.091,0.249-0.136,0.588-0.136,0.928v6.585h-1.991V46.49z"/>
		<path fill="#292929" d="M127.412,46.49c0-1.131-0.023-2.059-0.091-2.964h1.765l0.113,1.811h0.045
			c0.544-1.041,1.811-2.06,3.621-2.06c1.516,0,3.869,0.905,3.869,4.661v6.54h-1.991v-6.313c0-1.765-0.656-3.236-2.534-3.236
			c-1.313,0-2.331,0.929-2.67,2.037c-0.091,0.249-0.136,0.588-0.136,0.928v6.585h-1.991V46.49z"/>
		<path fill="#292929" d="M141.077,49.364c0.045,2.693,1.765,3.802,3.756,3.802c1.426,0,2.286-0.249,3.033-0.565l0.339,1.426
			c-0.701,0.316-1.9,0.679-3.644,0.679c-3.371,0-5.385-2.218-5.385-5.521s1.945-5.906,5.137-5.906c3.575,0,4.525,3.146,4.525,5.159
			c0,0.407-0.045,0.725-0.068,0.928H141.077z M146.915,47.938c0.022-1.267-0.521-3.235-2.761-3.235
			c-2.014,0-2.896,1.855-3.055,3.235H146.915z"/>
		<path fill="#292929" d="M151.304,38.412h1.991v16.066h-1.991V38.412z"/>
	</g>
	<g enable-background="new    ">
		<path fill="#292929" d="M44.97,58.888c1.267-0.204,2.919-0.317,4.662-0.317c2.896,0,4.774,0.521,6.245,1.63
			c1.584,1.177,2.58,3.055,2.58,5.747c0,2.92-1.064,4.934-2.535,6.178c-1.606,1.335-4.05,1.969-7.038,1.969
			c-1.788,0-3.055-0.113-3.915-0.227V58.888z M48.432,71.333c0.294,0.068,0.77,0.068,1.2,0.068c3.123,0.022,5.159-1.697,5.159-5.341
			c0.022-3.168-1.833-4.843-4.797-4.843c-0.77,0-1.267,0.068-1.562,0.136V71.333z"/>
		<path fill="#292929" d="M64.247,59.793c0,0.95-0.724,1.72-1.855,1.72c-1.086,0-1.811-0.77-1.788-1.72
			c-0.023-0.996,0.701-1.743,1.81-1.743S64.224,58.797,64.247,59.793z M60.694,73.936V62.87h3.439v11.065H60.694z"/>
		<path fill="#292929" d="M77.46,62.87c-0.045,0.701-0.091,1.629-0.091,3.281v6.178c0,2.127-0.43,3.869-1.674,4.979
			c-1.223,1.041-2.874,1.357-4.503,1.357c-1.448,0-2.987-0.294-3.982-0.86l0.679-2.602c0.702,0.407,1.923,0.837,3.213,0.837
			c1.629,0,2.874-0.883,2.874-2.919v-0.725H73.93c-0.656,0.928-1.719,1.448-2.986,1.448c-2.738,0-4.685-2.218-4.685-5.408
			c0-3.553,2.308-5.815,5.024-5.815c1.516,0,2.466,0.656,3.032,1.562h0.045l0.113-1.313H77.46z M73.93,67.373
			c0-0.227-0.021-0.452-0.067-0.634c-0.249-0.905-0.905-1.516-1.855-1.516c-1.245,0-2.263,1.131-2.263,3.146
			c0,1.651,0.815,2.941,2.263,2.941c0.882,0,1.584-0.588,1.81-1.403c0.092-0.248,0.113-0.61,0.113-0.904V67.373z"/>
		<path fill="#292929" d="M83.681,59.793c0,0.95-0.724,1.72-1.855,1.72c-1.087,0-1.811-0.77-1.788-1.72
			c-0.022-0.996,0.701-1.743,1.811-1.743S83.658,58.797,83.681,59.793z M80.128,73.936V62.87h3.439v11.065H80.128z"/>
		<path fill="#292929" d="M90.174,59.702v3.168h2.467v2.534h-2.467v4.006c0,1.335,0.316,1.945,1.357,1.945
			c0.43,0,0.77-0.045,1.019-0.09l0.022,2.602c-0.453,0.182-1.268,0.295-2.24,0.295c-1.109,0-2.037-0.385-2.58-0.951
			c-0.633-0.655-0.95-1.72-0.95-3.28v-4.526h-1.471V62.87h1.471v-2.398L90.174,59.702z"/>
		<path fill="#292929" d="M100.92,73.936l-0.203-1.108h-0.068c-0.725,0.882-1.855,1.357-3.168,1.357
			c-2.24,0-3.575-1.629-3.575-3.395c0-2.874,2.579-4.254,6.495-4.231V66.4c0-0.589-0.317-1.426-2.015-1.426
			c-1.132,0-2.331,0.385-3.055,0.837l-0.634-2.218c0.77-0.43,2.285-0.973,4.299-0.973c3.689,0,4.865,2.173,4.865,4.774v3.848
			c0,1.063,0.046,2.081,0.159,2.692H100.92z M100.513,68.708c-1.81-0.022-3.213,0.407-3.213,1.743c0,0.882,0.588,1.313,1.357,1.313
			c0.86,0,1.562-0.566,1.788-1.268c0.045-0.182,0.067-0.385,0.067-0.589V68.708z"/>
		<path fill="#292929" d="M106.574,57.869h3.44v16.066h-3.44V57.869z"/>
	</g>
</g>
</svg>
