<?xml version="1.0" encoding="utf-8"?>
<!-- Generator: Adobe Illustrator 21.1.0, SVG Export Plug-In . SVG Version: 6.00 Build 0)  -->
<svg version="1.1" id="Layer_1" xmlns="http://www.w3.org/2000/svg" xmlns:xlink="http://www.w3.org/1999/xlink" x="0px" y="0px"
	 viewBox="0 0 129.9 100" style="enable-background:new 0 0 129.9 100;" width="129.9px" height="100px" xml:space="preserve">
<style type="text/css">
	.st0{fill:#6A00FF;}
	.st1{fill:#292929;}
</style>
<g>
	<g>
		<g>
			<path class="st0" d="M90.5,9.2v27.1h9V9.2H90.5z M99.5,82.1h-9v9H9V9.2h90.5v-9H0v0.1h0v99.5h0v0.3h99.5v-9h0V82.1z"/>
		</g>
	</g>
	<g>
		<path class="st1" d="M50.8,39.4v15.3h-2V39.4H50.8z"/>
		<path class="st1" d="M53.5,46.7c0-1.1,0-2.1-0.1-3h1.8l0.1,1.8h0c0.5-1,1.8-2.1,3.6-2.1c1.5,0,3.9,0.9,3.9,4.7v6.5h-2v-6.3
			c0-1.8-0.7-3.2-2.5-3.2c-1.3,0-2.3,0.9-2.7,2c-0.1,0.2-0.1,0.6-0.1,0.9v6.6h-2V46.7z"/>
		<path class="st1" d="M65.4,54.7v-9.4h-1.5v-1.5h1.5v-0.5c0-1.5,0.3-2.9,1.3-3.8c0.7-0.7,1.7-1,2.7-1c0.7,0,1.3,0.2,1.7,0.3
			l-0.3,1.5C70.4,40.1,70,40,69.5,40c-1.7,0-2.1,1.5-2.1,3.2v0.6H70v1.5h-2.6v9.4H65.4z"/>
		<path class="st1" d="M80.5,49.1c0,4.1-2.8,5.8-5.5,5.8c-3,0-5.3-2.2-5.3-5.6c0-3.7,2.4-5.8,5.4-5.8C78.4,43.5,80.5,45.8,80.5,49.1
			z M71.8,49.2c0,2.4,1.4,4.2,3.3,4.2c1.9,0,3.3-1.8,3.3-4.3c0-1.9-0.9-4.2-3.3-4.2S71.8,47.1,71.8,49.2z"/>
		<path class="st1" d="M82.1,47.3c0-1.4,0-2.5-0.1-3.6h1.8l0.1,1.9h0c0.8-1.3,2.1-2.1,3.9-2.1c2.6,0,4.6,2.2,4.6,5.6
			c0,3.9-2.4,5.9-5,5.9c-1.4,0-2.7-0.6-3.4-1.7h0v6h-2V47.3z M84.1,50.2c0,0.3,0,0.6,0.1,0.8c0.4,1.4,1.6,2.3,3,2.3
			c2.1,0,3.3-1.7,3.3-4.2c0-2.2-1.2-4.1-3.3-4.1c-1.4,0-2.6,1-3,2.5c-0.1,0.2-0.1,0.5-0.1,0.8V50.2z"/>
		<path class="st1" d="M94.1,47.1c0-1.3,0-2.4-0.1-3.4h1.7l0.1,2.1h0.1c0.5-1.5,1.7-2.4,3-2.4c0.2,0,0.4,0,0.6,0.1v1.9
			c-0.2,0-0.4-0.1-0.7-0.1c-1.4,0-2.4,1.1-2.7,2.6c0,0.3-0.1,0.6-0.1,0.9v5.8h-2V47.1z"/>
		<path class="st1" d="M110.2,49.1c0,4.1-2.8,5.8-5.5,5.8c-3,0-5.2-2.2-5.2-5.6c0-3.7,2.4-5.8,5.4-5.8
			C108.1,43.5,110.2,45.8,110.2,49.1z M101.6,49.2c0,2.4,1.4,4.2,3.3,4.2c1.9,0,3.3-1.8,3.3-4.3c0-1.9-0.9-4.2-3.3-4.2
			C102.6,45,101.6,47.1,101.6,49.2z"/>
	</g>
	<g>
		<path class="st1" d="M48.8,58.9h3.5v12.4h6.1v2.9h-9.5V58.9z"/>
		<path class="st1" d="M61.8,69.7c0.1,1.4,1.5,2.1,3.1,2.1c1.2,0,2.1-0.2,3.1-0.5l0.5,2.3c-1.1,0.5-2.5,0.7-4,0.7
			c-3.8,0-5.9-2.2-5.9-5.6c0-2.8,1.7-5.9,5.6-5.9c3.6,0,4.9,2.8,4.9,5.5c0,0.6-0.1,1.1-0.1,1.4H61.8z M65.9,67.3
			c0-0.8-0.4-2.2-1.9-2.2c-1.4,0-2,1.3-2.1,2.2H65.9z"/>
		<path class="st1" d="M76.5,74.1L76.3,73h-0.1c-0.7,0.9-1.9,1.4-3.2,1.4c-2.2,0-3.6-1.6-3.6-3.4c0-2.9,2.6-4.3,6.5-4.2v-0.2
			c0-0.6-0.3-1.4-2-1.4c-1.1,0-2.3,0.4-3.1,0.8l-0.6-2.2c0.8-0.4,2.3-1,4.3-1c3.7,0,4.9,2.2,4.9,4.8v3.8c0,1.1,0,2.1,0.2,2.7H76.5z
			 M76.1,68.9c-1.8,0-3.2,0.4-3.2,1.7c0,0.9,0.6,1.3,1.4,1.3c0.9,0,1.6-0.6,1.8-1.3c0-0.2,0.1-0.4,0.1-0.6V68.9z"/>
		<path class="st1" d="M81.2,66.7c0-1.6,0-2.7-0.1-3.6h3l0.1,2h0.1c0.6-1.6,1.9-2.3,3-2.3c0.3,0,0.5,0,0.7,0v3.2
			c-0.2,0-0.5-0.1-0.9-0.1c-1.3,0-2.1,0.7-2.4,1.7c0,0.2-0.1,0.5-0.1,0.8v5.6h-3.4V66.7z"/>
		<path class="st1" d="M88.9,66.6c0-1.4,0-2.6-0.1-3.5h3l0.2,1.5h0.1c0.5-0.7,1.6-1.8,3.4-1.8c2.3,0,4,1.5,4,4.8v6.6H96V68
			c0-1.4-0.5-2.4-1.7-2.4c-1,0-1.5,0.7-1.7,1.3c-0.1,0.2-0.1,0.5-0.1,0.9v6.4h-3.4V66.6z"/>
		<path class="st1" d="M104.8,60c0,1-0.7,1.7-1.9,1.7c-1.1,0-1.8-0.8-1.8-1.7c0-1,0.7-1.7,1.8-1.7C104.1,58.2,104.8,59,104.8,60z
			 M101.3,74.1V63.1h3.4v11.1H101.3z"/>
		<path class="st1" d="M106.6,66.6c0-1.4,0-2.6-0.1-3.5h3l0.2,1.5h0.1c0.5-0.7,1.6-1.8,3.4-1.8c2.3,0,4,1.5,4,4.8v6.6h-3.4V68
			c0-1.4-0.5-2.4-1.7-2.4c-1,0-1.5,0.7-1.7,1.3c-0.1,0.2-0.1,0.5-0.1,0.9v6.4h-3.4V66.6z"/>
		<path class="st1" d="M129.5,63.1c0,0.7-0.1,1.6-0.1,3.3v6.2c0,2.1-0.4,3.9-1.7,5c-1.2,1-2.9,1.4-4.5,1.4c-1.4,0-3-0.3-4-0.9
			l0.7-2.6c0.7,0.4,1.9,0.8,3.2,0.8c1.6,0,2.9-0.9,2.9-2.9v-0.7h0c-0.7,0.9-1.7,1.4-3,1.4c-2.7,0-4.7-2.2-4.7-5.4
			c0-3.6,2.3-5.8,5-5.8c1.5,0,2.5,0.7,3,1.6h0l0.1-1.3H129.5z M126,67.6c0-0.2,0-0.5-0.1-0.6c-0.2-0.9-0.9-1.5-1.9-1.5
			c-1.2,0-2.3,1.1-2.3,3.1c0,1.7,0.8,2.9,2.3,2.9c0.9,0,1.6-0.6,1.8-1.4c0.1-0.2,0.1-0.6,0.1-0.9V67.6z"/>
	</g>
</g>
</svg>
