<svg id="Layer_1" data-name="Layer 1" xmlns="http://www.w3.org/2000/svg" viewBox="0 0 146 100" width="146" height="100"><defs><style>.cls-1{fill:#1ba1e2;}.cls-2{fill:#292929;}</style></defs><title>Compunnel Staffing</title><path class="cls-1" d="M90.55,9.07V36.21h9V9.07Zm9,72.82h-9v9H9.13V9.07H99.59V0H.08V.13h0V99.64h0V100H99.59v-9h0Z"/><path class="cls-2" d="M56.14,54a9.78,9.78,0,0,1-4,.72c-4.3,0-7.54-2.71-7.54-7.71a7.6,7.6,0,0,1,8-8,8.14,8.14,0,0,1,3.61.68l-.47,1.61a7.21,7.21,0,0,0-3.08-.64c-3.57,0-6,2.29-6,6.29,0,3.73,2.15,6.13,5.86,6.13a7.93,7.93,0,0,0,3.21-.63Z"/><path class="cls-2" d="M67.29,48.91c0,4.05-2.8,5.82-5.45,5.82-3,0-5.25-2.18-5.25-5.64,0-3.66,2.4-5.81,5.43-5.81S67.29,45.57,67.29,48.91ZM58.61,49c0,2.39,1.38,4.2,3.32,4.2s3.33-1.78,3.33-4.25c0-1.85-.93-4.21-3.28-4.21S58.61,46.94,58.61,49Z"/><path class="cls-2" d="M68.9,46.49c0-1.13,0-2.06-.09-3h1.74l.09,1.76h.07a3.76,3.76,0,0,1,3.43-2,3.24,3.24,0,0,1,3.1,2.19h.05a4.54,4.54,0,0,1,1.22-1.42,3.71,3.71,0,0,1,2.42-.77c1.45,0,3.59.95,3.59,4.75v6.45H82.58v-6.2c0-2.1-.77-3.37-2.38-3.37a2.58,2.58,0,0,0-2.35,1.81,3.26,3.26,0,0,0-.16,1v6.77H75.75V47.92c0-1.74-.77-3-2.29-3a2.71,2.71,0,0,0-2.46,2,2.78,2.78,0,0,0-.16,1v6.61H68.9Z"/><path class="cls-2" d="M86.85,47.1c0-1.4,0-2.53-.09-3.57h1.79l.09,1.88h0a4.29,4.29,0,0,1,3.89-2.13c2.64,0,4.63,2.24,4.63,5.56,0,3.94-2.4,5.89-5,5.89A3.84,3.84,0,0,1,88.87,53h-.05v5.34h-2Zm2,2.92a5.14,5.14,0,0,0,.09.82,3.07,3.07,0,0,0,3,2.32c2.1,0,3.32-1.71,3.32-4.22,0-2.2-1.15-4.08-3.26-4.08a3.18,3.18,0,0,0-3,2.47,3.13,3.13,0,0,0-.14.81Z"/><path class="cls-2" d="M108,51.49c0,1.13,0,2.13.09,3H106.3l-.11-1.79h0a4.12,4.12,0,0,1-3.61,2c-1.72,0-3.78-.95-3.78-4.8v-6.4h2v6.06c0,2.08.63,3.48,2.44,3.48a2.88,2.88,0,0,0,2.63-1.81,2.93,2.93,0,0,0,.18-1V43.53h2Z"/><path class="cls-2" d="M110.37,46.49c0-1.13,0-2.06-.09-3h1.77l.11,1.81h0a4,4,0,0,1,3.61-2.06c1.52,0,3.87.91,3.87,4.66v6.54h-2V48.17c0-1.77-.65-3.24-2.53-3.24a2.83,2.83,0,0,0-2.67,2,2.89,2.89,0,0,0-.14.93v6.58h-2Z"/><path class="cls-2" d="M122,46.49c0-1.13,0-2.06-.09-3h1.76l.12,1.81h0a4,4,0,0,1,3.62-2.06c1.52,0,3.87.91,3.87,4.66v6.54h-2V48.17c0-1.77-.66-3.24-2.53-3.24a2.82,2.82,0,0,0-2.67,2,2.89,2.89,0,0,0-.14.93v6.58h-2Z"/><path class="cls-2" d="M134.78,49.37a3.49,3.49,0,0,0,3.75,3.79,7.15,7.15,0,0,0,3-.56L141.9,54a8.8,8.8,0,0,1-3.64.68c-3.37,0-5.38-2.21-5.38-5.52s1.94-5.9,5.13-5.9c3.57,0,4.52,3.14,4.52,5.16a8.79,8.79,0,0,1-.06.93Zm5.83-1.43c0-1.27-.52-3.23-2.76-3.23-2,0-2.89,1.85-3,3.23Z"/><path class="cls-2" d="M144.09,38.42h2V54.48h-2Z"/><path class="cls-2" d="M45.15,70.38a8.86,8.86,0,0,0,3.82,1c1.58,0,2.42-.66,2.42-1.66s-.72-1.49-2.55-2.14c-2.54-.89-4.19-2.29-4.19-4.51,0-2.6,2.17-4.59,5.77-4.59a9.47,9.47,0,0,1,3.89.77L53.54,62a7.33,7.33,0,0,0-3.19-.72c-1.49,0-2.22.68-2.22,1.47,0,1,.86,1.4,2.83,2.15,2.69,1,4,2.4,4,4.55,0,2.55-2,4.72-6.15,4.72a10.07,10.07,0,0,1-4.32-.92Z"/><path class="cls-2" d="M59.76,60.56v3h2.32v2.38H59.76v3.76c0,1.26.3,1.83,1.28,1.83a5.51,5.51,0,0,0,1-.08l0,2.44a6.4,6.4,0,0,1-2.11.28,3.36,3.36,0,0,1-2.42-.89,4.31,4.31,0,0,1-.9-3.09V65.91H55.21V63.53h1.38V61.28Z"/><path class="cls-2" d="M69,73.93l-.19-1.05h-.07a3.74,3.74,0,0,1-3,1.28A3.18,3.18,0,0,1,62.42,71c0-2.7,2.42-4,6.1-4v-.15c0-.56-.3-1.34-1.89-1.34a5.91,5.91,0,0,0-2.87.78l-.6-2.08a8.67,8.67,0,0,1,4-.91c3.47,0,4.57,2,4.57,4.48V71.4a16.94,16.94,0,0,0,.15,2.53ZM68.63,69c-1.7,0-3,.38-3,1.63a1.16,1.16,0,0,0,1.27,1.24,1.77,1.77,0,0,0,1.68-1.19,2,2,0,0,0,.07-.56Z"/><path class="cls-2" d="M73.84,73.93v-8H72.47V63.53h1.37v0a4.77,4.77,0,0,1,1.31-3.49,4.25,4.25,0,0,1,2.87-1,4.8,4.8,0,0,1,1.5.21l-.13,2.49a2.16,2.16,0,0,0-.81-.15c-1.07,0-1.51.83-1.51,1.85v.08h2.08v2.38H77.09v8Z"/><path class="cls-2" d="M81.15,73.93v-8H79.79V63.53h1.36v0a4.78,4.78,0,0,1,1.32-3.49,4.25,4.25,0,0,1,2.87-1,4.85,4.85,0,0,1,1.5.21l-.13,2.49a2.18,2.18,0,0,0-.82-.15c-1.06,0-1.5.83-1.5,1.85v.08h2.08v2.38H84.41v8Z"/><path class="cls-2" d="M90.47,60.64a1.63,1.63,0,0,1-1.74,1.62,1.63,1.63,0,1,1,0-3.26A1.62,1.62,0,0,1,90.47,60.64ZM87.13,73.93V63.53h3.24v10.4Z"/><path class="cls-2" d="M91.34,66.85c0-1.3,0-2.4-.08-3.32h2.81L94.21,65h.07a3.8,3.8,0,0,1,3.21-1.66c2.12,0,3.72,1.4,3.72,4.46v6.17H98V68.17c0-1.34-.47-2.26-1.64-2.26a1.74,1.74,0,0,0-1.64,1.21,2.39,2.39,0,0,0-.12.81v6H91.34Z"/><path class="cls-2" d="M112.88,63.53c0,.66-.09,1.53-.09,3.08v5.81c0,2-.4,3.63-1.57,4.67A6.41,6.41,0,0,1,107,78.37a8.1,8.1,0,0,1-3.74-.81l.64-2.44a6.41,6.41,0,0,0,3,.78,2.48,2.48,0,0,0,2.7-2.74v-.68h0a3.31,3.31,0,0,1-2.8,1.36c-2.58,0-4.4-2.08-4.4-5.08,0-3.34,2.16-5.46,4.72-5.46a3.12,3.12,0,0,1,2.84,1.46h0l.1-1.23Zm-3.32,4.23a2.68,2.68,0,0,0-.06-.59,1.77,1.77,0,0,0-1.74-1.43c-1.17,0-2.13,1.06-2.13,3,0,1.55.77,2.76,2.13,2.76a1.76,1.76,0,0,0,1.7-1.32,2.88,2.88,0,0,0,.1-.85Z"/></svg>